<?xml version="1.0" encoding="UTF-8"?>
<svg id="_레이어_1" data-name="레이어 1" xmlns="http://www.w3.org/2000/svg" viewBox="0 0 143.77 202.51">
  <defs>
    <style>
      .cls-1 {
        isolation: isolate;
      }

      .cls-2 {
        fill: #2ccdff;
        stroke-width: 0px;
      }
    </style>
  </defs>
  <g id="Sonsectetur_adipisicing_elit" data-name="Sonsectetur adipisicing elit" class="cls-1">
    <g class="cls-1">
      <path class="cls-2" d="m51.76,136.21h6.3v-2.95h2.72v2.95h6.27v2.15h-15.29v-2.15Zm7.64,3.32c3.69.01,6.21,1.82,6.21,4.58s-2.52,4.54-6.21,4.52c-3.74.01-6.25-1.77-6.24-4.52-.01-2.76,2.5-4.57,6.24-4.58Zm4.29,10.59c5.22,0,8.47,1.66,8.47,4.5s-3.25,4.45-8.47,4.44c-5.3.01-8.53-1.65-8.5-4.44-.03-2.83,3.21-4.5,8.5-4.5Zm-4.29-3.55c2.18,0,3.64-.95,3.66-2.46-.03-1.56-1.49-2.55-3.66-2.55s-3.64.99-3.61,2.55c-.03,1.52,1.43,2.46,3.61,2.46Zm4.29,10.42c3.64,0,5.77-.87,5.78-2.38-.01-1.56-2.15-2.39-5.78-2.41-3.69.01-5.83.84-5.81,2.41-.01,1.5,2.12,2.38,5.81,2.38Zm8.19-16.57h3.72v2.29h-3.72v7.21h-2.72v-16.46h2.72v6.96Z"/>
      <path class="cls-2" d="m77.08,145.26h9.36v-4.81h2.66v4.81h11.31v2.2h-23.33v-2.2Zm20.61,9.07c-.01,2.98-3.52,4.74-9.07,4.72-5.5.01-9.02-1.75-9.02-4.72s3.52-4.75,9.02-4.75,9.06,1.76,9.07,4.75Zm-17.89-19.61h17.69v2.15c.01,2.05.01,4.17-.71,6.81l-2.66-.29c.69-2.62.69-4.51.69-6.5h-15v-2.18Zm8.82,22.24c3.92-.01,6.35-.97,6.38-2.63-.03-1.69-2.46-2.68-6.38-2.69-3.88.01-6.33,1-6.3,2.69-.03,1.66,2.42,2.62,6.3,2.63Z"/>
    </g>
  </g>
  <g id="Sonsectetur_adipisicing_elit-2" data-name="Sonsectetur adipisicing elit" class="cls-1">
    <g class="cls-1">
      <path class="cls-2" d="m48.31,183.95c.63-.04,2.07-.11,2.5-.13v-.76c0-1.08-.67-1.71-1.94-1.71-1.11,0-1.78.51-1.97,1.21h-1.86c.17-1.58,1.64-2.72,3.9-2.72,1.52,0,3.74.55,3.74,3.32v6.35h-1.83v-1.3h-.07c-.37.71-1.25,1.51-2.83,1.51-1.81,0-3.23-1.04-3.22-2.9,0-2.18,1.85-2.74,3.57-2.87Zm.07,4.27c1.53,0,2.44-1.03,2.44-2.16v-.87c-.44.03-1.8.12-2.25.15-1.23.09-2,.55-2,1.49s.76,1.38,1.81,1.39Z"/>
      <path class="cls-2" d="m59.33,189.51h-2.02l-3.46-9.54h2.02l2.41,7.33h.09l2.41-7.33h2.02l-3.46,9.54Z"/>
      <path class="cls-2" d="m65.27,176.27c.64,0,1.18.49,1.18,1.11s-.54,1.12-1.18,1.11c-.65,0-1.19-.49-1.2-1.11,0-.62.54-1.11,1.2-1.11Zm-.95,3.69h1.88v9.54h-1.88v-9.54Z"/>
      <path class="cls-2" d="m71.62,183.95c.63-.04,2.07-.11,2.5-.13v-.76c0-1.08-.67-1.71-1.94-1.71-1.11,0-1.78.51-1.97,1.21h-1.86c.17-1.58,1.64-2.72,3.9-2.72,1.52,0,3.74.55,3.74,3.32v6.35h-1.83v-1.3h-.07c-.37.71-1.25,1.51-2.83,1.51-1.81,0-3.23-1.04-3.22-2.9,0-2.18,1.85-2.74,3.57-2.87Zm.07,4.27c1.53,0,2.44-1.03,2.44-2.16v-.87c-.44.03-1.8.12-2.25.15-1.23.09-2,.55-2,1.49s.76,1.38,1.81,1.39Z"/>
      <path class="cls-2" d="m82.73,181.45h-1.95v5.24c0,1.08.54,1.27,1.14,1.28.27,0,.69-.03.95-.05v1.63c-.25.04-.66.07-1.18.07-1.47,0-2.79-.81-2.78-2.55v-5.62h-1.41v-1.49h1.41v-2.29h1.86v2.29h1.95v1.49Z"/>
      <path class="cls-2" d="m85.5,176.27c.64,0,1.18.49,1.18,1.11s-.54,1.12-1.18,1.11c-.65,0-1.19-.49-1.2-1.11,0-.62.54-1.11,1.2-1.11Zm-.95,3.69h1.88v9.54h-1.88v-9.54Z"/>
      <path class="cls-2" d="m88.3,184.78c0-2.97,1.76-4.94,4.46-4.94s4.45,1.97,4.45,4.94-1.76,4.92-4.45,4.92-4.47-1.97-4.46-4.92Zm4.46,3.36c1.72,0,2.55-1.54,2.55-3.36s-.83-3.38-2.55-3.39c-1.75,0-2.58,1.56-2.58,3.39s.83,3.36,2.58,3.36Z"/>
      <path class="cls-2" d="m100.94,189.51h-1.88v-9.54h1.81v1.56h.11c.45-1.03,1.39-1.69,2.81-1.69,1.96,0,3.26,1.24,3.25,3.6v6.06h-1.86v-5.84c0-1.39-.76-2.21-2.02-2.21s-2.21.87-2.21,2.39v5.66Z"/>
    </g>
  </g>
  <g>
    <path class="cls-2" d="m63.32,102.55l-3.41,1.95c-.96.55-1.29,1.77-.75,2.73,0,0,0,0,0,0,.56.95,1.77,1.28,2.73.74l3.41-1.95c.96-.55,1.3-1.77.75-2.73-.55-.96-1.77-1.3-2.73-.75,0,0,0,0,0,0Z"/>
    <path class="cls-2" d="m62.27,96.27c-.55-.96-1.77-1.29-2.73-.74,0,0,0,0,0,0l-10.22,5.84c-.96.55-1.29,1.77-.74,2.73.56.95,1.77,1.28,2.73.74l10.22-5.84c.96-.55,1.29-1.77.74-2.73Z"/>
    <path class="cls-2" d="m89.43,93.81c.83-.55,1.41-1.41,1.6-2.4l5.86-31.34,22.87-13.76c6.12-3.84,9.15-7.15,9.51-10.39.18-2.04-.63-4.04-2.18-5.38-.93-.86-2.03-1.51-3.24-1.89-2.72-.67-8.53-1.13-16.97,3.41l-19.92,11.8-23.63-10.69c-.93-.44-2.01-.47-2.96-.06,0,0-7.17,2.49-7.23,2.52-1.81.83-2.6,2.98-1.77,4.79.27.58.69,1.08,1.21,1.45l2.35,1.96-1.37.55c-1.03.41-1.52,1.57-1.11,2.6,0,0,0,0,0,0,.42,1.02,1.57,1.51,2.6,1.11l3.38-1.35,3.15,2.62-2.17,1.08c-.99.49-1.39,1.7-.89,2.68.51.97,1.69,1.37,2.68.89l3.74-1.87,3.33,2.78-14.93,8.84-.05-.03-16.98-7.97c-1.03-.6-2.28-.67-3.36-.18l-5.45,2.58c-1.83.78-2.68,2.89-1.91,4.72.23.54.59,1.02,1.05,1.39l20.07,15.62c1.91,1.64,4.63,1.94,6.86.76l21.74-10.75v5.59l-4.89,2.45c-.99.49-1.39,1.7-.89,2.68.52.96,1.69,1.35,2.68.89l3.11-1.55v3.53l-2.89,1.45c-.99.49-1.39,1.7-.89,2.68.52.96,1.69,1.35,2.68.89l1.11-.55s0,6.85,0,6.91c.04,1.31.81,2.48,2.01,3.02,1.06.45,2.27.38,3.28-.17,0,0,8.73-3.85,8.83-3.91Zm-33.97-54.76l6.3-2.19h.01s20.99,9.49,20.99,9.49l-10.83,6.41-16.47-13.71Zm23.85,54.87v-27.24c-.02-1.12-.94-2.01-2.06-1.99-.29,0-.57.07-.83.19l-24.7,12.22c-.81.43-1.8.31-2.48-.31l-19.58-15.23,4.77-2.25s17.05,8,17.05,8c1.13.66,2.53.67,3.67.02l53.68-31.79c7.45-4.01,12.3-3.44,14.04-3.01,1.14.28,2.55,1.67,2.41,2.94-.12,1.06-1.27,3.44-7.63,7.43l-23.61,14.2c-.49.29-.83.78-.93,1.35l-5.99,32.03-7.82,3.44Z"/>
    <circle class="cls-2" cx="100.31" cy="47.23" r="2"/>
    <circle class="cls-2" cx="93.31" cy="51.23" r="2"/>
    <path class="cls-2" d="m55.77,88.46l-3.41,1.95c-.96.55-1.29,1.77-.75,2.73,0,0,0,0,0,0,.56.95,1.77,1.28,2.73.74l3.41-1.95c.96-.55,1.3-1.77.75-2.73-.55-.96-1.77-1.3-2.73-.75,0,0,0,0,0,0Z"/>
  </g>
</svg>