<?xml version="1.0" encoding="UTF-8"?>
<svg id="_레이어_1" data-name="레이어 1" xmlns="http://www.w3.org/2000/svg" viewBox="0 0 111.3 177.77">
  <defs>
    <style>
      .cls-1 {
        isolation: isolate;
      }

      .cls-2 {
        fill: #fff;
        stroke-width: 0px;
      }
    </style>
  </defs>
  <g id="Sonsectetur_adipisicing_elit" data-name="Sonsectetur adipisicing elit" class="cls-1">
    <g class="cls-1">
      <path class="cls-2" d="m48.93,117.43l-1.37,2.15c-2.98-1.03-5.2-3.12-6.36-5.8-1.14,2.86-3.41,5.14-6.44,6.23l-1.37-2.12c3.99-1.42,6.4-4.89,6.41-8.56v-2.46h2.78v2.46c-.01,3.55,2.39,6.8,6.36,8.1Zm-11.79,4.84h17.38v9.02h-2.72v-6.81h-14.66v-2.2Zm14.66-16.63h2.72v15.4h-2.72v-15.4Z"/>
      <path class="cls-2" d="m81.96,120.1h-10.36v2.75h7.5v8.13h-17.72v-8.13h7.53v-2.75h-10.33v-2.17h23.39v2.17Zm-21.24-13.65h19.04v2.2h-3.72v4.9h3.61v2.2h-18.81v-2.2h3.64v-4.9h-3.75v-2.2Zm15.74,22.33v-3.78h-12.4v3.78h12.4Zm-3.15-15.23v-4.9h-6.15v4.9h6.15Z"/>
    </g>
  </g>
  <g id="Sonsectetur_adipisicing_elit-2" data-name="Sonsectetur adipisicing elit" class="cls-1">
    <g class="cls-1">
      <path class="cls-2" d="m44.66,153.63h-2.06v8.05h-1.88v-8.05h-1.48v-1.49h1.48v-1.11c0-1.71,1.1-2.67,2.85-2.67.45,0,.91.05,1.28.12v1.56c-.35-.05-.62-.07-.79-.07-.99,0-1.46.4-1.46,1.34v.83h2.06v1.49Z"/>
      <path class="cls-2" d="m45.57,156.95c0-2.97,1.76-4.94,4.46-4.94s4.45,1.97,4.45,4.94-1.76,4.92-4.45,4.92-4.47-1.97-4.46-4.92Zm4.46,3.36c1.72,0,2.55-1.54,2.55-3.36s-.83-3.38-2.55-3.39c-1.75,0-2.58,1.56-2.58,3.39s.83,3.36,2.58,3.36Z"/>
      <path class="cls-2" d="m55.9,156.95c0-2.97,1.76-4.94,4.46-4.94s4.45,1.97,4.45,4.94-1.76,4.92-4.45,4.92-4.47-1.97-4.46-4.92Zm4.46,3.36c1.72,0,2.55-1.54,2.55-3.36s-.83-3.38-2.55-3.39c-1.75,0-2.58,1.56-2.58,3.39s.83,3.36,2.58,3.36Z"/>
      <path class="cls-2" d="m66.24,156.93c0-3.11,1.71-4.92,4.01-4.92,1.78,0,2.42,1.07,2.76,1.67h.09v-4.73h1.88v12.73h-1.83v-1.49h-.14c-.35.62-1.04,1.68-2.78,1.69-2.3,0-3.99-1.86-3.99-4.94Zm4.41,3.34c1.6,0,2.5-1.37,2.5-3.38s-.88-3.3-2.5-3.29c-1.66,0-2.5,1.41-2.5,3.29,0,1.92.85,3.37,2.5,3.38Z"/>
    </g>
  </g>
  <g>
    <path class="cls-2" d="m94.29,64.6h-3.82c-.64-15.37-12.62-28.1-28.42-30.96,1.8-1.7,2.86-4.03,2.86-6.68,0-5.3-4.24-9.54-9.54-9.54s-9.54,4.24-9.54,9.54c0,2.65,1.06,5.09,2.86,6.79-15.8,2.86-27.78,15.59-28.42,30.96h-3.82c-1.17,0-2.12.95-2.12,2.12s.95,2.12,2.12,2.12h77.83c1.17,0,2.12-.95,2.12-2.12s-.95-2.23-2.12-2.23ZM55.38,21.66c2.97,0,5.3,2.33,5.3,5.3s-2.33,5.3-5.3,5.3-5.3-2.33-5.3-5.3,2.33-5.3,5.3-5.3Zm0,15.69c16.54,0,30.11,12.19,30.85,27.36H24.52c.74-15.27,14.31-27.36,30.85-27.36Z"/>
    <path class="cls-2" d="m94.29,76.16H16.46c-1.17,0-2.12.95-2.12,2.12s.95,2.12,2.12,2.12h77.83c1.17,0,2.12-.95,2.12-2.12s-.95-2.12-2.12-2.12Z"/>
  </g>
</svg>