<?xml version="1.0" encoding="UTF-8"?>
<svg id="_레이어_1" data-name="레이어 1" xmlns="http://www.w3.org/2000/svg" viewBox="0 0 145.31 190.14">
  <defs>
    <style>
      .cls-1 {
        isolation: isolate;
      }

      .cls-2 {
        fill: #2ccdff;
        stroke-width: 0px;
      }
    </style>
  </defs>
  <g id="Sonsectetur_adipisicing_elit" data-name="Sonsectetur adipisicing elit" class="cls-1">
    <g class="cls-1">
      <path class="cls-2" d="m50.1,129.8l-1.54,2.12c-2.88-1.37-5.17-4.27-6.33-7.61-1.17,3.65-3.58,6.81-6.5,8.27l-1.6-2.15c3.89-1.88,6.71-6.71,6.73-11.05v-2.72h-5.78v-2.26h14.06v2.26h-5.58v2.72c-.01,4.05,2.66,8.57,6.55,10.42Zm1.78-17.98h2.72v10.16h4.12v2.29h-4.12v13.2h-2.72v-25.65Z"/>
      <path class="cls-2" d="m83.36,126.48h-23.42v-2.18h10.39v-2.72h-7.47v-8.59h17.6v2.15h-14.91v4.26h15.08v2.18h-7.67v2.72h10.39v2.18Zm-11.74,1.66c5.52.01,8.83,1.69,8.84,4.67-.01,2.98-3.32,4.65-8.84,4.67-5.57-.01-8.9-1.69-8.9-4.67s3.33-4.65,8.9-4.67Zm0,7.18c3.86.03,6.13-.87,6.13-2.52s-2.26-2.55-6.13-2.55-6.17.93-6.15,2.55c-.01,1.65,2.23,2.55,6.15,2.52Z"/>
      <path class="cls-2" d="m100.3,130.03l-1.55,2.06c-2.79-1.32-4.89-3.99-5.98-7.13-1.13,3.39-3.36,6.23-6.3,7.59l-1.52-2.09c3.91-1.79,6.43-6.17,6.44-10.39v-1.69h-5.67v-2.18h5.64v-3.86h2.75v3.86h5.58v2.18h-5.64v1.69c0,3.95,2.42,8.13,6.24,9.96Zm2.23-18.21h2.72v10.33h4.12v2.29h-4.12v13.03h-2.72v-25.65Z"/>
    </g>
  </g>
  <g id="Sonsectetur_adipisicing_elit-2" data-name="Sonsectetur adipisicing elit" class="cls-1">
    <g class="cls-1">
      <path class="cls-2" d="m59.36,163.13c0-2.91,1.74-4.94,4.43-4.94,2.18,0,3.75,1.28,3.96,3.22h-1.83c-.19-.9-.91-1.64-2.09-1.65-1.55,0-2.58,1.29-2.58,3.32s1.01,3.38,2.58,3.38c1.06,0,1.85-.59,2.09-1.62h1.83c-.2,1.85-1.67,3.22-3.92,3.22-2.79,0-4.47-2.05-4.46-4.92Z"/>
      <path class="cls-2" d="m72.65,162.31c.63-.04,2.07-.11,2.5-.13v-.76c0-1.08-.67-1.71-1.94-1.71-1.11,0-1.78.51-1.97,1.21h-1.86c.17-1.58,1.64-2.72,3.9-2.72,1.52,0,3.74.55,3.74,3.32v6.35h-1.83v-1.3h-.07c-.37.71-1.25,1.51-2.83,1.51-1.81,0-3.23-1.04-3.22-2.9,0-2.18,1.85-2.74,3.57-2.87Zm.07,4.27c1.53,0,2.44-1.03,2.44-2.16v-.87c-.44.03-1.8.12-2.25.15-1.23.09-2,.55-2,1.49s.76,1.38,1.81,1.39Z"/>
      <path class="cls-2" d="m79.29,158.32h1.81v1.51h.11c.35-1.02,1.31-1.66,2.43-1.65.23,0,.6.02.79.04v1.79c-.16-.04-.6-.11-.98-.11-1.3,0-2.27.9-2.27,2.14v5.82h-1.88v-9.54Z"/>
    </g>
  </g>
  <g>
    <g>
      <path class="cls-2" d="m43.56,86.58c-6.32,0-11.58-5.26-11.58-11.58s5.26-11.58,11.58-11.58,11.58,5.26,11.58,11.58-5.26,11.58-11.58,11.58Zm0-18.95c-4,0-7.37,3.37-7.37,7.37s3.37,7.37,7.37,7.37,7.37-3.37,7.37-7.37-3.37-7.37-7.37-7.37Z"/>
      <path class="cls-2" d="m43.56,78.16c-1.68,0-3.16-1.47-3.16-3.16s1.47-3.16,3.16-3.16,3.16,1.47,3.16,3.16-1.47,3.16-3.16,3.16Zm0-4.21c-.63,0-1.05.42-1.05,1.05s.42,1.05,1.05,1.05,1.05-.42,1.05-1.05-.42-1.05-1.05-1.05Z"/>
    </g>
    <path class="cls-2" d="m122.3,76.06h-6.11v-4.21h6.11c1.26-.21,4-4.84,4.42-6.74.84-3.37-.21-5.9-1.05-7.16-1.26-1.89-2.74-2.74-3.58-2.74-2.53-.42-6.53-1.26-10.53-1.89-5.05-1.05-11.58-2.11-12.42-2.32v-4.21c.63,0,2.74.42,13.05,2.32,4,.84,8,1.47,10.53,1.89,2.32.42,4.63,2.32,6.32,4.63,1.47,2.11,2.74,5.68,1.68,10.53-.21,1.47-3.79,9.9-8.42,9.9Z"/>
    <path class="cls-2" d="m34.09,76.06h-6.32c-5.9,0-10.53-4.63-10.53-10.53v-8.42c0-5.9,4.63-10.53,10.53-10.53h9.26l4.21-8.63c2.53-5.05,7.79-8.21,13.47-8.21h27.16c5.05,0,9.68,2.53,12.42,6.95l6.74,10.95-3.58,2.32-6.74-10.95c-1.89-3.16-5.26-5.05-8.84-5.05h-27.16c-4.21,0-7.79,2.32-9.68,5.9l-5.47,10.95h-11.79c-3.58,0-6.32,2.74-6.32,6.32v8.42c0,3.58,2.74,6.32,6.32,6.32h6.32v4.21Z"/>
    <g>
      <path class="cls-2" d="m106.72,86.58c-6.32,0-11.58-5.26-11.58-11.58s5.26-11.58,11.58-11.58,11.58,5.26,11.58,11.58-5.26,11.58-11.58,11.58Zm0-18.95c-4,0-7.37,3.37-7.37,7.37s3.37,7.37,7.37,7.37,7.37-3.37,7.37-7.37-3.37-7.37-7.37-7.37Z"/>
      <path class="cls-2" d="m106.72,78.16c-1.68,0-3.16-1.47-3.16-3.16s1.47-3.16,3.16-3.16,3.16,1.47,3.16,3.16-1.47,3.16-3.16,3.16Zm0-4.21c-.63,0-1.05.42-1.05,1.05s.42,1.05,1.05,1.05,1.05-.42,1.05-1.05-.42-1.05-1.05-1.05Z"/>
    </g>
    <polygon class="cls-2" points="99.35 50.79 69.88 50.79 69.88 36.05 90.93 36.05 90.93 40.26 74.09 40.26 74.09 46.58 99.35 46.58 99.35 50.79"/>
    <path class="cls-2" d="m71.98,50.79h-19.16c-1.68,0-2.95-.84-3.79-2.32-.84-1.47-.84-3.16,0-4.42l3.16-5.26c1.05-1.68,2.95-2.74,4.84-2.74h14.95v4.21h-14.95c-.42,0-1.05.21-1.26.63l-3.16,5.26.21.21h19.16v4.42Z"/>
    <rect class="cls-2" x="53.03" y="71.85" width="42.11" height="4.21"/>
    <rect class="cls-2" x="19.35" y="55" width="6.32" height="4.21"/>
    <rect class="cls-2" x="120.41" y="59.21" width="8.42" height="4.21"/>
  </g>
</svg>