<?xml version="1.0" encoding="UTF-8"?>
<svg id="_레이어_1" data-name="레이어 1" xmlns="http://www.w3.org/2000/svg" viewBox="0 0 139.13 210.24">
  <defs>
    <style>
      .cls-1 {
        isolation: isolate;
      }

      .cls-2 {
        fill: #2ccdff;
        stroke-width: 0px;
      }
    </style>
  </defs>
  <g id="Sonsectetur_adipisicing_elit" data-name="Sonsectetur adipisicing elit" class="cls-1">
    <g class="cls-1">
      <path class="cls-2" d="m66.8,139.93h-9.45v-2.17h12.19c0,7.51-3.19,14.01-11.99,18.23l-1.43-2.2c6.81-3.25,10.15-7.87,10.68-13.86Zm10.39,20.73h-2.75v-25.65h2.75v25.65Z"/>
      <path class="cls-2" d="m89.58,140.42h-7.27v-2.23h9.96c0,1.32-.1,2.59-.3,3.84h3.45v-6.35h2.58v23.73h-2.58v-8.73h-4.38v-2.23h4.38v-4.18h-3.95c-1.25,4.31-3.98,8.06-8.82,10.93l-1.6-1.95c5.45-3.24,8.06-7.54,8.53-12.82Zm13.65,20.24h-2.58v-25.65h2.58v25.65Z"/>
    </g>
  </g>
  <g id="Sonsectetur_adipisicing_elit-2" data-name="Sonsectetur adipisicing elit" class="cls-1">
    <g class="cls-1">
      <path class="cls-2" d="m46.57,181.51h1.81v1.56h.11c.4-1.06,1.34-1.69,2.6-1.69s2.16.62,2.57,1.69h.11c.45-1.03,1.49-1.69,2.87-1.69,1.72,0,2.94,1.08,2.95,3.27v6.4h-1.88v-6.22c0-1.29-.81-1.83-1.79-1.83-1.2,0-1.9.83-1.9,1.97v6.08h-1.86v-6.33c0-1.05-.71-1.72-1.74-1.72s-1.95.88-1.95,2.16v5.89h-1.88v-9.54Z"/>
      <path class="cls-2" d="m64.97,185.5c.63-.04,2.07-.11,2.5-.13v-.76c0-1.08-.67-1.71-1.94-1.71-1.11,0-1.78.51-1.97,1.21h-1.86c.17-1.58,1.64-2.72,3.9-2.72,1.52,0,3.74.55,3.74,3.32v6.35h-1.83v-1.3h-.07c-.37.71-1.25,1.51-2.83,1.51-1.81,0-3.23-1.04-3.22-2.9,0-2.18,1.85-2.74,3.57-2.87Zm.07,4.27c1.53,0,2.44-1.03,2.44-2.16v-.87c-.44.03-1.8.12-2.25.15-1.23.09-2,.55-2,1.49s.76,1.38,1.81,1.39Z"/>
      <path class="cls-2" d="m71.19,186.32c0-2.91,1.74-4.94,4.43-4.94,2.18,0,3.75,1.28,3.96,3.22h-1.83c-.19-.9-.91-1.64-2.09-1.65-1.55,0-2.58,1.29-2.58,3.32s1.01,3.38,2.58,3.38c1.06,0,1.85-.59,2.09-1.62h1.83c-.2,1.85-1.67,3.22-3.92,3.22-2.79,0-4.47-2.05-4.46-4.92Z"/>
      <path class="cls-2" d="m83.24,191.05h-1.88v-12.73h1.85v4.75h.12c.45-1.04,1.34-1.69,2.83-1.69,1.96,0,3.27,1.21,3.27,3.6v6.06h-1.88v-5.84c0-1.41-.76-2.21-2.02-2.21s-2.29.87-2.29,2.39v5.66Z"/>
      <path class="cls-2" d="m92.64,177.81c.64,0,1.18.49,1.18,1.11s-.54,1.12-1.18,1.11c-.65,0-1.19-.49-1.2-1.11,0-.62.54-1.11,1.2-1.11Zm-.95,3.69h1.88v9.54h-1.88v-9.54Z"/>
      <path class="cls-2" d="m97.74,191.05h-1.88v-9.54h1.81v1.56h.11c.45-1.03,1.39-1.69,2.81-1.69,1.96,0,3.26,1.24,3.25,3.6v6.06h-1.86v-5.84c0-1.39-.76-2.21-2.02-2.21s-2.21.87-2.21,2.39v5.66Z"/>
      <path class="cls-2" d="m105.7,186.34c0-2.94,1.75-4.96,4.41-4.96,2.17,0,4.24,1.34,4.24,4.8v.67h-6.79c.05,1.82,1.12,2.85,2.69,2.85,1.06,0,1.76-.46,2.07-1.04h1.9c-.42,1.55-1.89,2.58-3.99,2.58-2.81,0-4.54-1.94-4.54-4.9Zm6.8-.9c0-1.45-.94-2.52-2.37-2.51-1.5,0-2.48,1.17-2.56,2.51h4.93Z"/>
    </g>
  </g>
  <g>
    <path class="cls-2" d="m111.5,109.77h-46.61c-1.04,0-1.89-.84-1.89-1.89,0-5.71,4.65-10.35,10.35-10.35h29.68c5.71,0,10.35,4.65,10.35,10.35,0,1.04-.84,1.89-1.89,1.89Zm-44.45-3.77h42.29c-.81-2.71-3.33-4.69-6.3-4.69h-29.68c-2.97,0-5.49,1.98-6.3,4.69Z"/>
    <path class="cls-2" d="m77.9,101.3c-1.03,0-1.87-.83-1.89-1.86l-.22-17.72c-.01-1.04.82-1.9,1.86-1.91,1.01-.09,1.9.82,1.91,1.86l.22,17.72c.01,1.04-.82,1.9-1.86,1.91h-.02Z"/>
    <path class="cls-2" d="m99.52,101.3c-1.03,0-1.87-.83-1.89-1.86l-.22-17.76c-.01-1.04.82-1.9,1.86-1.91.96-.05,1.89.82,1.91,1.86l.22,17.76c.01,1.04-.82,1.9-1.86,1.91h-.02Z"/>
    <path class="cls-2" d="m91.32,67.05c-.49,0-.97-.19-1.34-.56l-28.77-29.02c-.73-.74-.73-1.93.01-2.67.74-.73,1.93-.73,2.67.01l28.77,29.02c.73.74.73,1.93-.01,2.67-.37.36-.85.55-1.33.55Z"/>
    <path class="cls-2" d="m76.63,77.68c-.56,0-1.11-.25-1.49-.72l-23.31-29.72c-.64-.82-.5-2.01.32-2.65.82-.64,2.01-.5,2.65.32l23.31,29.72c.64.82.5,2.01-.32,2.65-.35.27-.76.4-1.16.4Z"/>
    <path class="cls-2" d="m88.48,90.51c-5.35,0-10.26-3.15-12.51-8.02-.84-1.75-1.27-3.7-1.27-5.76,0-.36.02-.72.04-1.06.62-8.2,8.4-14.34,17-12.34,6.2,1.51,10.52,7.02,10.52,13.4,0,2.01-.42,3.94-1.25,5.73-2.22,4.89-7.14,8.06-12.53,8.06Zm0-23.8c-5.2,0-9.58,4.05-9.97,9.22-.02.24-.04.52-.04.79,0,1.49.31,2.89.91,4.16,1.64,3.56,5.21,5.85,9.1,5.85s7.49-2.3,9.1-5.86c.61-1.31.91-2.7.91-4.15,0-4.63-3.13-8.63-7.62-9.73-.81-.19-1.62-.28-2.39-.28Z"/>
    <path class="cls-2" d="m50.08,48.38c-.77,0-1.49-.06-2.15-.18-5.69-.79-10.39-4.94-11.91-10.55-.35-1.19-.53-2.5-.53-3.86,0-8.04,6.55-14.59,14.59-14.59s14.59,6.55,14.59,14.59c0,.89-.09,1.8-.27,2.71-1.01,5.49-5.17,9.97-10.6,11.39-1.21.32-2.46.48-3.71.48Zm0-25.4c-5.96,0-10.82,4.85-10.82,10.82,0,1,.13,1.95.39,2.83,1.13,4.19,4.6,7.26,8.87,7.85,1.38.25,2.88.15,4.32-.23,4.02-1.05,7.11-4.37,7.86-8.45.14-.69.2-1.36.2-2.01,0-5.96-4.85-10.82-10.81-10.82Z"/>
    <path class="cls-2" d="m29.18,82.97c-.12,0-.24-.01-.37-.04-1.02-.2-1.69-1.19-1.49-2.22l8.67-43.93c.2-1.02,1.2-1.69,2.22-1.49,1.02.2,1.69,1.19,1.49,2.22l-8.67,43.93c-.18.9-.97,1.52-1.85,1.52Z"/>
    <path class="cls-2" d="m36.46,84.86c-.19,0-.39-.03-.58-.09-.99-.32-1.54-1.38-1.22-2.37l11.8-36.62c.32-.99,1.39-1.54,2.38-1.22.99.32,1.54,1.38,1.22,2.37l-11.8,36.62c-.26.8-1,1.31-1.8,1.31Z"/>
    <path class="cls-2" d="m31.42,96.03c-4.74,0-8.6-3.87-8.6-8.62,0-3.65,2.3-6.91,5.73-8.11.88-.32,1.85-.49,2.87-.49,2.48,0,4.83,1.06,6.46,2.9,1.4,1.6,2.16,3.62,2.16,5.69,0,3.99-2.71,7.43-6.59,8.37-.64.16-1.33.24-2.03.24Zm0-13.44c-.57,0-1.11.09-1.6.27-1.94.68-3.22,2.51-3.22,4.56,0,2.67,2.16,4.85,4.82,4.85.39,0,.77-.05,1.13-.13,2.19-.53,3.71-2.47,3.71-4.71,0-1.16-.43-2.3-1.23-3.2-.9-1.03-2.22-1.62-3.62-1.62Z"/>
    <path class="cls-2" d="m36.03,105.54c-.81,0-1.55-.52-1.8-1.33l-3.02-9.7c-.31-1,.25-2.05,1.24-2.36,1-.31,2.05.25,2.36,1.24l3.02,9.7c.31,1-.25,2.05-1.24,2.36-.19.06-.38.09-.56.09Z"/>
    <path class="cls-2" d="m88.48,82.76c-3.33,0-6.04-2.71-6.04-6.04s2.71-6.04,6.04-6.04,6.04,2.71,6.04,6.04-2.71,6.04-6.04,6.04Zm0-8.31c-1.25,0-2.27,1.02-2.27,2.27s1.02,2.27,2.27,2.27,2.27-1.02,2.27-2.27-1.02-2.27-2.27-2.27Z"/>
    <path class="cls-2" d="m50.08,40.49c-3.7,0-6.71-3.01-6.71-6.7s3.01-6.71,6.71-6.71,6.7,3.01,6.7,6.71-3.01,6.7-6.7,6.7Zm0-9.64c-1.62,0-2.93,1.31-2.93,2.93s1.32,2.93,2.93,2.93,2.93-1.31,2.93-2.93-1.31-2.93-2.93-2.93Z"/>
  </g>
</svg>