<?xml version="1.0" encoding="UTF-8"?>
<svg id="_레이어_1" data-name="레이어 1" xmlns="http://www.w3.org/2000/svg" viewBox="0 0 132.94 207.15">
  <defs>
    <style>
      .cls-1 {
        fill: #fff;
        stroke-width: 0px;
      }
    </style>
  </defs>
  <g>
    <path class="cls-1" d="m52.55,142.17v-2.06h-4.72v-2.2h11.74v2.2h-4.41v2.06c0,4.38,1.77,8.77,5.38,10.85l-1.63,2c-2.45-1.46-4.12-4.08-5.02-7.17-.92,3.35-2.66,6.21-5.17,7.77l-1.66-2.03c3.64-2.19,5.48-6.86,5.5-11.42Zm5.12,1.92h3.98v-8.53h2.58v23.82h-2.58v-13.05h-3.98v-2.23Zm11.77,16.57h-2.61v-25.65h2.61v25.65Z"/>
    <path class="cls-1" d="m88.95,152.99l-1.49,2.12c-3.02-1.33-5.42-4.17-6.61-7.59-1.19,3.66-3.59,6.78-6.58,8.24l-1.57-2.15c3.86-1.82,6.73-6.63,6.75-11.05v-2.72h-5.87v-2.26h14.46v2.26h-5.84v2.72c-.01,4.29,2.81,8.73,6.76,10.42Zm2.32-17.98h2.72v25.65h-2.72v-25.65Z"/>
  </g>
  <g>
    <path class="cls-1" d="m49.14,181.51h1.83v1.55h.16c.33-.6.98-1.67,2.74-1.67,2.31,0,4.01,1.81,4.01,4.92s-1.68,4.93-3.99,4.94c-1.73,0-2.42-1.06-2.76-1.69h-.11v5.08h-1.88v-13.13Zm4.32,8.14c1.65,0,2.51-1.46,2.51-3.38s-.83-3.3-2.51-3.29c-1.62,0-2.48,1.3-2.48,3.29s.88,3.37,2.48,3.38Z"/>
    <path class="cls-1" d="m62.87,185.5c.63-.04,2.07-.11,2.5-.13v-.76c0-1.08-.67-1.71-1.94-1.71-1.11,0-1.78.51-1.97,1.21h-1.86c.17-1.58,1.64-2.72,3.9-2.72,1.52,0,3.74.55,3.74,3.32v6.35h-1.83v-1.3h-.07c-.37.71-1.25,1.51-2.83,1.51-1.81,0-3.23-1.04-3.22-2.9,0-2.18,1.85-2.74,3.57-2.87Zm.07,4.27c1.53,0,2.44-1.03,2.44-2.16v-.87c-.44.03-1.8.12-2.25.15-1.23.09-2,.55-2,1.49s.76,1.38,1.81,1.39Z"/>
    <path class="cls-1" d="m69.52,181.51h1.83v1.55h.16c.33-.6.98-1.67,2.74-1.67,2.31,0,4.01,1.81,4.01,4.92s-1.68,4.93-3.99,4.94c-1.73,0-2.42-1.06-2.76-1.69h-.11v5.08h-1.88v-13.13Zm4.32,8.14c1.65,0,2.51-1.46,2.51-3.38s-.83-3.3-2.51-3.29c-1.62,0-2.48,1.3-2.48,3.29s.88,3.37,2.48,3.38Z"/>
    <path class="cls-1" d="m79.7,186.34c0-2.94,1.75-4.96,4.41-4.96,2.17,0,4.24,1.34,4.24,4.8v.67h-6.79c.05,1.82,1.12,2.85,2.69,2.85,1.06,0,1.76-.46,2.07-1.04h1.9c-.42,1.55-1.89,2.58-3.99,2.58-2.81,0-4.54-1.94-4.54-4.9Zm6.8-.9c0-1.45-.94-2.52-2.37-2.51-1.5,0-2.48,1.17-2.56,2.51h4.93Z"/>
    <path class="cls-1" d="m90.21,181.51h1.81v1.51h.11c.35-1.02,1.31-1.66,2.43-1.65.23,0,.6.02.79.04v1.79c-.16-.04-.6-.11-.98-.11-1.3,0-2.27.9-2.27,2.14v5.82h-1.88v-9.54Z"/>
  </g>
  <g>
    <path class="cls-1" d="m110.79,59.87h5.28c.84,0,1.51-.68,1.51-1.51v-9.07c0-.84-.68-1.51-1.51-1.51h-5.28c-1.97-7.89-7.67-13.61-14.38-13.61h-51.41c-6.62,0-12.4,5.54-14.39,13.61h-5.27c-.84,0-1.51.68-1.51,1.51v9.07c0,.84.68,1.51,1.51,1.51h5.27c1.04,5.05,4.15,9.44,8.57,12.1-4.42,2.66-7.53,7.04-8.57,12.1h-5.27c-.84,0-1.51.68-1.51,1.51v9.07c0,.84.68,1.51,1.51,1.51h5.27c1.99,8.07,7.77,13.61,14.39,13.61h51.41c6.71,0,12.41-5.72,14.38-13.61h5.28c.84,0,1.51-.68,1.51-1.51v-9.07c0-.84-.68-1.51-1.51-1.51h-5.28c-1.07-5.04-4.17-9.42-8.58-12.1,4.41-2.68,7.51-7.05,8.58-12.1Zm3.76-9.07v6.05h-3.22c.26-2.01.26-4.04,0-6.05h3.22Zm-87.71,0h23.93c.35,2,.35,4.05,0,6.05h-23.93v-6.05Zm13.24-3.02c1.14-2.77,2.98-4.54,4.91-4.54s3.82,1.81,4.92,4.54h-9.83Zm9.83,12.1c-1.11,2.72-2.92,4.54-4.92,4.54s-3.78-1.77-4.91-4.54h9.83Zm-16.18,0h3.14c1.51,4.62,4.6,7.56,8.12,7.56,5.09,0,9.07-5.98,9.07-13.61s-3.99-13.61-9.07-13.61c-3.52,0-6.61,2.94-8.12,7.56h-3.14c1.8-6.31,6.25-10.59,11.26-10.59,6.67,0,12.1,7.46,12.1,16.63s-5.43,16.63-12.1,16.63c-5.01,0-9.46-4.27-11.26-10.59h0Zm-6.88,27.22h23.93c.35,2,.35,4.05,0,6.05h-23.93v-6.05Zm13.24-3.02c1.14-2.77,2.98-4.54,4.91-4.54s3.82,1.81,4.92,4.54h-9.83Zm9.83,12.1c-1.11,2.72-2.92,4.54-4.92,4.54s-3.78-1.77-4.91-4.54h9.83Zm-16.18,0h3.14c1.51,4.62,4.6,7.56,8.12,7.56,5.09,0,9.07-5.98,9.07-13.61s-3.99-13.61-9.07-13.61c-3.52,0-6.61,2.94-8.12,7.56h-3.14c1.8-6.31,6.25-10.59,11.26-10.59,6.67,0,12.1,7.46,12.1,16.63s-5.43,16.63-12.1,16.63c-5.01,0-9.46-4.27-11.26-10.59h0Zm80.82-9.07v6.05h-3.22c.26-2.01.26-4.04,0-6.05h3.22Zm-6.05,3.02c0,9.17-5.43,16.63-12.1,16.63h-43.39c4.7-4.23,7.3-10.31,7.1-16.63.2-6.32-2.4-12.4-7.1-16.63h43.39c6.67,0,12.1,7.46,12.1,16.63Zm-12.1-19.66h-43.39c4.7-4.23,7.3-10.31,7.1-16.63.2-6.32-2.4-12.4-7.1-16.63h43.39c6.67,0,12.1,7.46,12.1,16.63s-5.43,16.63-12.1,16.63Z"/>
    <rect class="cls-1" x="67.68" y="40.21" width="22.68" height="3.02"/>
    <rect class="cls-1" x="93.38" y="40.21" width="3.02" height="3.02"/>
    <rect class="cls-1" x="67.68" y="76.5" width="22.68" height="3.02"/>
    <rect class="cls-1" x="93.38" y="76.5" width="3.02" height="3.02"/>
  </g>
</svg>