<?xml version="1.0" encoding="UTF-8"?>
<svg id="_레이어_1" data-name="레이어 1" xmlns="http://www.w3.org/2000/svg" viewBox="0 0 137.58 207.15">
  <defs>
    <style>
      .cls-1 {
        isolation: isolate;
      }

      .cls-2 {
        fill: #fff;
        stroke-width: 0px;
      }
    </style>
  </defs>
  <g id="Sonsectetur_adipisicing_elit" data-name="Sonsectetur adipisicing elit" class="cls-1">
    <g class="cls-1">
      <path class="cls-2" d="m49.84,140.22v-1h-5.55v-2.23h13.83v2.23h-5.5v1c-.01,3.19,2.3,6.41,6.18,7.7l-1.4,2.17c-2.88-1-5.01-3.06-6.13-5.61-1.12,2.83-3.36,5.1-6.41,6.18l-1.4-2.21c3.94-1.33,6.4-4.71,6.38-8.24Zm-1.69,11.91h2.72v5.78h14.63v2.2h-17.35v-7.99Zm16.66,1.69h-2.72v-9.65h-4.89v-2.21h4.89v-6.93h2.72v18.78Z"/>
      <path class="cls-2" d="m84.24,152.99l-1.55,2.12c-2.88-1.37-5.17-4.27-6.33-7.61-1.17,3.65-3.58,6.81-6.5,8.27l-1.6-2.15c3.89-1.88,6.71-6.71,6.73-11.05v-2.72h-5.78v-2.26h14.06v2.26h-5.58v2.72c-.01,4.05,2.66,8.57,6.55,10.42Zm1.78-17.98h2.72v10.16h4.12v2.29h-4.12v13.2h-2.72v-25.65Z"/>
    </g>
  </g>
  <g id="Sonsectetur_adipisicing_elit-2" data-name="Sonsectetur adipisicing elit" class="cls-1">
    <g class="cls-1">
      <path class="cls-2" d="m27.97,186.34c0-2.94,1.75-4.96,4.41-4.96,2.17,0,4.24,1.34,4.24,4.8v.67h-6.79c.05,1.82,1.12,2.85,2.69,2.85,1.06,0,1.76-.46,2.07-1.04h1.9c-.42,1.55-1.89,2.58-3.99,2.58-2.81,0-4.54-1.94-4.54-4.9Zm6.8-.9c0-1.45-.94-2.52-2.37-2.51-1.5,0-2.48,1.17-2.56,2.51h4.93Z"/>
      <path class="cls-2" d="m40.37,191.05h-1.88v-12.73h1.88v12.73Z"/>
      <path class="cls-2" d="m42.23,186.34c0-2.94,1.75-4.96,4.41-4.96,2.17,0,4.24,1.34,4.24,4.8v.67h-6.79c.05,1.82,1.12,2.85,2.69,2.85,1.06,0,1.76-.46,2.07-1.04h1.9c-.42,1.55-1.89,2.58-3.99,2.58-2.81,0-4.54-1.94-4.54-4.9Zm6.8-.9c0-1.45-.94-2.52-2.37-2.51-1.5,0-2.48,1.17-2.56,2.51h4.93Z"/>
      <path class="cls-2" d="m52.32,186.32c0-2.91,1.74-4.94,4.43-4.94,2.18,0,3.75,1.28,3.96,3.22h-1.83c-.19-.9-.91-1.64-2.09-1.65-1.55,0-2.58,1.29-2.58,3.32s1.01,3.38,2.58,3.38c1.06,0,1.85-.59,2.09-1.62h1.83c-.2,1.85-1.67,3.22-3.92,3.22-2.79,0-4.47-2.05-4.46-4.92Z"/>
      <path class="cls-2" d="m66.94,183h-1.95v5.24c0,1.08.54,1.27,1.14,1.28.27,0,.69-.03.95-.05v1.63c-.25.04-.66.07-1.18.07-1.47,0-2.79-.81-2.78-2.55v-5.62h-1.41v-1.49h1.41v-2.29h1.86v2.29h1.95v1.49Z"/>
      <path class="cls-2" d="m68.77,181.51h1.81v1.51h.11c.35-1.02,1.31-1.66,2.43-1.65.23,0,.6.02.79.04v1.79c-.16-.04-.6-.11-.98-.11-1.3,0-2.27.9-2.27,2.14v5.82h-1.88v-9.54Z"/>
      <path class="cls-2" d="m74.58,186.32c0-2.97,1.76-4.94,4.46-4.94s4.45,1.97,4.45,4.94-1.76,4.92-4.45,4.92-4.47-1.97-4.46-4.92Zm4.46,3.36c1.72,0,2.55-1.54,2.55-3.36s-.83-3.38-2.55-3.39c-1.75,0-2.58,1.56-2.58,3.39s.83,3.36,2.58,3.36Z"/>
      <path class="cls-2" d="m87.22,191.05h-1.88v-9.54h1.81v1.56h.11c.45-1.03,1.39-1.69,2.81-1.69,1.96,0,3.26,1.24,3.25,3.6v6.06h-1.86v-5.84c0-1.39-.76-2.21-2.02-2.21s-2.21.87-2.21,2.39v5.66Z"/>
      <path class="cls-2" d="m96.55,177.81c.64,0,1.18.49,1.18,1.11s-.54,1.12-1.18,1.11c-.65,0-1.19-.49-1.2-1.11,0-.62.54-1.11,1.2-1.11Zm-.95,3.69h1.88v9.54h-1.88v-9.54Z"/>
      <path class="cls-2" d="m99.35,186.32c0-2.91,1.74-4.94,4.43-4.94,2.18,0,3.75,1.28,3.96,3.22h-1.83c-.19-.9-.91-1.64-2.09-1.65-1.55,0-2.58,1.29-2.58,3.32s1.01,3.38,2.58,3.38c1.06,0,1.85-.59,2.09-1.62h1.83c-.2,1.85-1.67,3.22-3.92,3.22-2.79,0-4.47-2.05-4.46-4.92Z"/>
    </g>
  </g>
  <g>
    <path class="cls-2" d="m92.45,63.97h14.4c.7,2.5,3.1,4.4,5.8,4.4,3.4,0,6.1-2.7,6.1-6.1s-2.7-6.1-6.1-6.1c-2.8,0-5.1,1.9-5.8,4.4h-14.4v-7.3c0-1.4-.3-2.7-.7-3.9h7.3c.7,0,1.4-.5,1.6-1.1l2.2-6.1h4c.7,2.5,3.1,4.4,5.8,4.4,3.4,0,6.1-2.7,6.1-6.1s-2.7-6.1-6.1-6.1c-2.8,0-5.1,1.9-5.8,4.4h-5.2c-.7,0-1.4.5-1.6,1.1l-2.2,6.1h-7.9c-.7-.9-1.5-1.7-2.4-2.4v-7.9l6.1-2.2c.7-.2,1.1-.9,1.1-1.6v-5.2c2.5-.7,4.4-3.1,4.4-5.8,0-3.4-2.7-6.1-6.1-6.1s-6.1,2.7-6.1,6.1c0,2.8,1.9,5.1,4.4,5.8v4l-6.1,2.2c-.7.2-1.1.9-1.1,1.6v7.3c-1.2-.4-2.5-.7-3.9-.7h-7.3v-14.3c2.5-.7,4.4-3.1,4.4-5.8,0-3.4-2.7-6.1-6.1-6.1s-6.1,2.7-6.1,6.1c0,2.8,1.9,5.1,4.4,5.8v14.4h-7.3c-1.4,0-2.7.3-3.9.7v-7.3c0-.7-.5-1.4-1.1-1.6l-6.1-2.2v-4c2.5-.7,4.4-3.1,4.4-5.8,0-3.4-2.7-6.1-6.1-6.1s-6.1,2.7-6.1,6.1c0,2.8,1.9,5.1,4.4,5.8v5.2c0,.7.5,1.4,1.1,1.6l6.1,2.2v7.9c-.9.7-1.7,1.5-2.4,2.4h-7.9l-2.2-6.1c-.2-.7-.9-1.1-1.6-1.1h-5.2c-.7-2.5-3.1-4.4-5.8-4.4-3.4,0-6.1,2.7-6.1,6.1s2.7,6.1,6.1,6.1c2.8,0,5.1-1.9,5.8-4.4h4l2.2,6.1c.2.7.9,1.1,1.6,1.1h7.3c-.4,1.2-.7,2.5-.7,3.9v7.3h-14.3c-.7-2.5-3.1-4.4-5.8-4.4-3.4,0-6.1,2.7-6.1,6.1s2.7,6.1,6.1,6.1c2.8,0,5.1-1.9,5.8-4.4h14.4v7.2c0,1.4.3,2.7.7,3.9h-7.3c-.7,0-1.4.5-1.6,1.1l-2.2,6.1h-4c-.7-2.5-3.1-4.4-5.8-4.4-3.4,0-6.1,2.7-6.1,6.1s2.7,6.1,6.1,6.1c2.8,0,5.1-1.9,5.8-4.4h5.2c.7,0,1.4-.5,1.6-1.1l2.2-6.1h7.9c.7.9,1.5,1.7,2.4,2.4v7.9l-6.1,2.2c-.7.2-1.1.9-1.1,1.6v5.2c-2.5.7-4.4,3.1-4.4,5.8,0,3.4,2.7,6.1,6.1,6.1s6.1-2.7,6.1-6.1c0-2.8-1.9-5.1-4.4-5.8v-4l6.1-2.2c.7-.2,1.1-.9,1.1-1.6v-7.3c1.2.4,2.5.7,3.9.7h7.3v14.4c-2.5.7-4.4,3.1-4.4,5.8,0,3.4,2.7,6.1,6.1,6.1s6.1-2.7,6.1-6.1c0-2.8-1.9-5.1-4.4-5.8v-14.4h7.2c1.4,0,2.7-.3,3.9-.7v7.3c0,.7.5,1.4,1.1,1.6l6.1,2.2v4c-2.5.7-4.4,3.1-4.4,5.8,0,3.4,2.7,6.1,6.1,6.1s6.1-2.7,6.1-6.1c0-2.8-1.9-5.1-4.4-5.8v-5.2c0-.7-.5-1.4-1.1-1.6l-6.1-2.2v-7.9c.9-.7,1.7-1.5,2.4-2.4h7.9l2.2,6.1c.2.7.9,1.1,1.6,1.1h5.2c.7,2.5,3.1,4.4,5.8,4.4,3.4,0,6.1-2.7,6.1-6.1s-2.7-6.1-6.1-6.1c-2.8,0-5.1,1.9-5.8,4.4h-4l-2.2-6.1c-.2-.7-.9-1.1-1.6-1.1h-7.3c.4-1.2.7-2.5.7-3.9v-7.3Zm20.2-4.4c1.5,0,2.7,1.2,2.7,2.7s-1.2,2.7-2.7,2.7-2.7-1.2-2.7-2.7c0-1.5,1.2-2.7,2.7-2.7Zm0-21.9c1.5,0,2.7,1.2,2.7,2.7s-1.2,2.7-2.7,2.7-2.7-1.2-2.7-2.7c0-1.5,1.2-2.7,2.7-2.7Zm-22.3-16.8c0-1.5,1.2-2.7,2.7-2.7s2.7,1.2,2.7,2.7-1.2,2.7-2.7,2.7c-1.4,0-2.7-1.2-2.7-2.7Zm-21.8,0c0-1.5,1.2-2.7,2.7-2.7s2.7,1.2,2.7,2.7-1.2,2.7-2.7,2.7-2.7-1.2-2.7-2.7Zm-21.9,0c0-1.5,1.2-2.7,2.7-2.7s2.7,1.2,2.7,2.7-1.2,2.7-2.7,2.7-2.7-1.2-2.7-2.7Zm-16.8,22.3c-1.5,0-2.7-1.2-2.7-2.7s1.2-2.7,2.7-2.7,2.7,1.2,2.7,2.7c0,1.4-1.2,2.7-2.7,2.7Zm0,21.8c-1.5,0-2.7-1.2-2.7-2.7s1.2-2.7,2.7-2.7,2.7,1.2,2.7,2.7-1.2,2.7-2.7,2.7Zm0,21.9c-1.5,0-2.7-1.2-2.7-2.7s1.2-2.7,2.7-2.7,2.7,1.2,2.7,2.7-1.2,2.7-2.7,2.7Zm22.3,16.8c0,1.5-1.2,2.7-2.7,2.7s-2.7-1.2-2.7-2.7,1.2-2.7,2.7-2.7c1.4,0,2.7,1.2,2.7,2.7Zm21.8,0c0,1.5-1.2,2.7-2.7,2.7s-2.7-1.2-2.7-2.7,1.2-2.7,2.7-2.7c1.5,0,2.7,1.2,2.7,2.7Zm21.9,0c0,1.5-1.2,2.7-2.7,2.7s-2.7-1.2-2.7-2.7,1.2-2.7,2.7-2.7c1.5,0,2.7,1.2,2.7,2.7Zm16.8-22.3c1.5,0,2.7,1.2,2.7,2.7s-1.2,2.7-2.7,2.7-2.7-1.2-2.7-2.7c0-1.4,1.2-2.7,2.7-2.7Zm-32.4-1.3h-18c-4.8,0-8.7-3.9-8.7-8.7v-18.1c0-4.8,3.9-8.7,8.7-8.7h18c4.8,0,8.7,3.9,8.7,8.7v18c.1,4.9-3.8,8.8-8.7,8.8Z"/>
    <path class="cls-2" d="m77.05,52.17h-11.6c-2.4,0-4.3,1.9-4.3,4.3v11.6c0,2.4,1.9,4.3,4.3,4.3h11.6c2.4,0,4.3-1.9,4.3-4.3v-11.6c0-2.4-1.9-4.3-4.3-4.3Zm.9,15.9c0,.5-.4.9-.9.9h-11.6c-.5,0-.9-.4-.9-.9v-11.6c0-.5.4-.9.9-.9h11.6c.5,0,.9.4.9.9v11.6Z"/>
  </g>
</svg>