<?xml version="1.0" encoding="UTF-8"?>
<svg id="_레이어_1" data-name="레이어 1" xmlns="http://www.w3.org/2000/svg" viewBox="0 0 128.31 202.51">
  <defs>
    <style>
      .cls-1 {
        isolation: isolate;
      }

      .cls-2 {
        fill: #fff;
        stroke-width: 0px;
      }
    </style>
  </defs>
  <g id="Sonsectetur_adipisicing_elit" data-name="Sonsectetur adipisicing elit" class="cls-1">
    <g class="cls-1">
      <path class="cls-2" d="m39.74,148.06l-1.63,2.15c-2.95-1.4-5.28-4.28-6.48-7.79-1.19,3.76-3.55,6.86-6.63,8.36l-1.66-2.29c4.04-1.79,6.87-6.7,6.87-11.59v-4.38h2.75v4.38c-.03,4.68,2.81,9.4,6.78,11.16Zm2.32-17.69h2.72v25.71h-2.72v-25.71Z"/>
      <path class="cls-2" d="m49.95,132.83h10.02v4.64h3.18v-6.64h2.58v17.95h-2.58v-9.07h-3.18v4.98h-10.02v-11.85Zm7.5,9.73v-7.59h-4.95v7.59h4.95Zm-3.72,4.61h2.69v6.1h15.06v2.2h-17.75v-8.3Zm17,2.38h-2.58v-19.18h2.58v19.18Z"/>
      <path class="cls-2" d="m74.19,150.55h23.47v2.23h-23.47v-2.23Zm20.81-4.35h-17.86v-13.71h17.61v2.2h-14.86v3.46h14.31v2.15h-14.31v3.72h15.12v2.17Z"/>
    </g>
  </g>
  <g id="Sonsectetur_adipisicing_elit-2" data-name="Sonsectetur adipisicing elit" class="cls-1">
    <g class="cls-1">
      <path class="cls-2" d="m30.43,181.68c0-2.91,1.74-4.94,4.43-4.94,2.18,0,3.75,1.28,3.96,3.22h-1.83c-.19-.9-.91-1.64-2.09-1.65-1.55,0-2.58,1.29-2.58,3.32s1.01,3.38,2.58,3.38c1.06,0,1.85-.59,2.09-1.62h1.83c-.2,1.85-1.67,3.22-3.92,3.22-2.79,0-4.47-2.05-4.46-4.92Z"/>
      <path class="cls-2" d="m40.17,181.7c0-2.94,1.75-4.96,4.41-4.96,2.17,0,4.24,1.34,4.24,4.8v.67h-6.79c.05,1.82,1.12,2.85,2.69,2.85,1.06,0,1.76-.46,2.07-1.04h1.9c-.42,1.55-1.89,2.58-3.99,2.58-2.81,0-4.54-1.94-4.54-4.9Zm6.8-.9c0-1.45-.94-2.52-2.37-2.51-1.5,0-2.48,1.17-2.56,2.51h4.93Z"/>
      <path class="cls-2" d="m50.68,176.87h1.81v1.56h.11c.4-1.06,1.34-1.69,2.6-1.69s2.16.62,2.57,1.69h.11c.45-1.03,1.49-1.69,2.87-1.69,1.72,0,2.94,1.08,2.95,3.27v6.4h-1.88v-6.22c0-1.29-.81-1.83-1.79-1.83-1.2,0-1.9.83-1.9,1.97v6.08h-1.86v-6.33c0-1.05-.71-1.72-1.74-1.72s-1.95.88-1.95,2.16v5.89h-1.88v-9.54Z"/>
      <path class="cls-2" d="m65.53,181.7c0-2.94,1.75-4.96,4.41-4.96,2.17,0,4.24,1.34,4.24,4.8v.67h-6.79c.05,1.82,1.12,2.85,2.69,2.85,1.06,0,1.76-.46,2.07-1.04h1.9c-.42,1.55-1.89,2.58-3.99,2.58-2.81,0-4.54-1.94-4.54-4.9Zm6.8-.9c0-1.45-.94-2.52-2.37-2.51-1.5,0-2.48,1.17-2.56,2.51h4.93Z"/>
      <path class="cls-2" d="m77.92,186.41h-1.88v-9.54h1.81v1.56h.11c.45-1.03,1.39-1.69,2.81-1.69,1.96,0,3.26,1.24,3.25,3.6v6.06h-1.86v-5.84c0-1.39-.76-2.21-2.02-2.21s-2.21.87-2.21,2.39v5.66Z"/>
      <path class="cls-2" d="m90.77,178.36h-1.95v5.24c0,1.08.54,1.27,1.14,1.28.27,0,.69-.03.95-.05v1.63c-.25.04-.66.07-1.18.07-1.47,0-2.79-.81-2.78-2.55v-5.62h-1.41v-1.49h1.41v-2.29h1.86v2.29h1.95v1.49Z"/>
    </g>
  </g>
  <g>
    <path class="cls-2" d="m43.53,98.95c2.56,0,4.63-2.07,4.63-4.63s-2.07-4.63-4.63-4.63-4.63,2.07-4.63,4.63,2.07,4.63,4.63,4.63Zm0-6.18c.85,0,1.54.69,1.54,1.54s-.69,1.54-1.54,1.54-1.54-.69-1.54-1.54.69-1.54,1.54-1.54Z"/>
    <path class="cls-2" d="m92.96,91.23c-2.56,0-4.63,2.07-4.63,4.63s2.07,4.63,4.63,4.63,4.63-2.07,4.63-4.63-2.07-4.63-4.63-4.63Zm0,6.18c-.85,0-1.54-.69-1.54-1.54s.69-1.54,1.54-1.54,1.54.69,1.54,1.54-.69,1.54-1.54,1.54Z"/>
    <path class="cls-2" d="m113.02,75.53l-3.09-18.54s-.02-.04-.02-.07,0-.04,0-.05l-1.54-6.18c-.17-.69-.79-1.17-1.5-1.17h-20.08v-.21c3.32-.83,5.34-4.2,4.51-7.53-.83-3.32-4.2-5.34-7.53-4.51-3.32.83-5.34,4.2-4.51,7.53.14.57.37,1.12.67,1.63h-2.45v-4.14c-.01-.49-.24-.94-.63-1.24l-13.85-10.27c-.09-.06-.19-.11-.3-.15-.04-.02-.08-.05-.12-.06-.18-.07-.37-.1-.57-.09l-14.9.67c-.2,0-.39.06-.57.14h-.02l-13.8,6.28v-1.95c0-.85-.69-1.54-1.54-1.54h-6.18c-.85,0-1.54.69-1.54,1.54v6.17l-3.73,1.7c-.55.25-.9.8-.91,1.4v15.45c0,.64.39,1.21.99,1.44l3.65,1.41v11.05h-1.54c-.85,0-1.54.69-1.54,1.54v12.36s.02.06.02.09c0,.13.03.25.07.37.02.06.03.12.06.18.06.13.14.25.24.36.03.03.04.07.07.1.13.13.28.23.45.31h.02s13.02,5.8,13.02,5.8c.31,2.73,1.81,5.18,4.1,6.7h-18.06v3.09h92.69v-3.09h-13.19c2.12-2.33,2.89-5.59,2.04-8.62l10.15-3.84h0c.6-.23,1-.81,1-1.45v-12.36s-.02-.09-.03-.13c0-.04,0-.08,0-.12Zm-3.35-1.29h-15.17v-15.45h12.59l2.57,15.45Zm-27.48-31.42c.29-1.68,1.89-2.81,3.57-2.52.81.14,1.53.59,2,1.27h0c.98,1.4.65,3.32-.75,4.31s-3.32.65-4.31-.75c-.47-.67-.66-1.5-.52-2.31Zm-4.68,6.71h6.18v24.72h-6.18v-24.72Zm-33.99,24.72v-3.28l4.42,1.71h0c.18.07.37.11.56.11h.07l14.91-.67c.19-.01.37-.06.55-.13.06-.03.11-.07.17-.1.08-.04.15-.08.23-.14l10.01-8.62v11.12h-30.9Zm17.05-40.59l1.24,35.44-11.21.5-.61.03-1.24-35.44,11.82-.53Zm13.85,25.39l-9.58,8.25-1.12-32.1,10.65,7.9.05,15.96Zm-28.73-23.98l1.18,33.88-3.35-1.3v-2.67c0-.62-.37-1.18-.94-1.42l-9.88-4.23v-18.35l12.98-5.9Zm-23.8,24.21v-13.39l1.54-.7v14.69l-1.54-.6Zm4.63-22.11h3.09v23.17c0,.62.37,1.18.94,1.42l9.88,4.23v8.25h-13.9v-37.08Zm-3.09,44.8h6.18v-3.09h-6.18v-1.54h63.34c.85,0,1.54-.69,1.54-1.54v-23.17h17.33l.77,3.09h-13.47c-.85,0-1.54.69-1.54,1.54v18.54c0,.85.69,1.54,1.54,1.54h16.99v3.09h-4.63v3.09h4.63v3.09h-61.31c-3.1-2.06-7.13-2.06-10.23,0h-14.97v-4.63Zm60.79,10.81h-31.58c-.18-1.09-.56-2.13-1.12-3.09h34.53c-.81.9-1.43,1.95-1.84,3.09Zm-48.72-3.09c-.43.75-.76,1.55-.97,2.39l-5.37-2.39h6.33Zm8.01-1.54c3.41,0,6.18,2.77,6.18,6.18s-2.77,6.18-6.18,6.18-6.18-2.77-6.18-6.18,2.77-6.18,6.18-6.18Zm9.13,7.72h31.04c0,2.28.85,4.49,2.38,6.18h-37.43c2.13-1.42,3.59-3.65,4.02-6.18Zm34.12,0c0-3.41,2.77-6.18,6.18-6.18s6.18,2.77,6.18,6.18-2.77,6.18-6.18,6.18-6.18-2.77-6.18-6.18Zm13.07-6.18h3.19l-2.45.93c-.23-.32-.47-.63-.74-.93Z"/>
  </g>
</svg>